<?xml version="1.0" standalone="no"?><!DOCTYPE svg PUBLIC "-//W3C//DTD SVG 1.1//EN" "http://www.w3.org/Graphics/SVG/1.1/DTD/svg11.dtd"><svg t="1651662467081" class="icon" viewBox="0 0 1024 1024" version="1.1" xmlns="http://www.w3.org/2000/svg" p-id="10313" xmlns:xlink="http://www.w3.org/1999/xlink" width="200" height="200"><defs><style type="text/css"></style></defs><path d="M28.672 563.2V460.8c21.504-2.048 38.912-3.072 51.2-12.288 12.288-3.072 19.456-16.384 29.696-22.528 10.24-14.336 14.336-28.672 17.408-48.128 2.048-16.384 3.072-36.864 3.072-70.656 0-54.272 2.048-95.232 10.24-116.736 3.072-19.456 16.384-38.912 29.696-51.2 14.336-14.336 34.816-21.504 63.488-31.744 17.408-3.072 48.128-10.24 86.016-10.24h21.504v102.4c-33.792 0-54.272 2.048-65.536 5.12-10.24 3.072-16.384 10.24-21.504 16.384-3.072 5.12-5.12 17.408-5.12 36.864 0 19.456-2.048 51.2-3.072 102.4-2.048 29.696-3.072 51.2-12.288 68.608-5.12 16.384-16.384 31.744-22.528 46.08-10.24 12.288-22.528 21.504-46.08 34.816 17.408 12.288 33.792 19.456 46.08 33.792 12.288 14.336 19.456 29.696 28.672 48.128 5.12 17.408 12.288 46.08 12.288 75.776 2.048 48.128 2.048 79.872 2.048 92.16 0 17.408 2.048 31.744 5.12 38.912 3.072 10.24 14.336 14.336 21.504 16.384 10.24 3.072 31.744 5.12 65.536 5.12v102.4h-22.528c-38.912 0-72.704-2.048-95.232-10.24-21.504-5.12-38.912-16.384-54.272-31.744-16.384-16.384-22.528-31.744-31.744-51.2-3.072-19.456-5.12-53.248-5.12-100.352 0-51.2-2.048-86.016-5.12-102.4-5.12-21.504-17.408-38.912-31.744-49.152-22.528-5.12-41.984-14.336-71.68-14.336z m961.536 0c-21.504 2.048-38.912 3.072-51.2 12.288-12.288 3.072-19.456 16.384-29.696 22.528-10.24 14.336-14.336 28.672-17.408 48.128-2.048 16.384-3.072 36.864-3.072 70.656 0 54.272-2.048 95.232-10.24 116.736-3.072 21.504-16.384 38.912-29.696 51.2-14.336 14.336-34.816 21.504-63.488 31.744-17.408 3.072-48.128 10.24-86.016 10.24h-22.528v-102.4c33.792 0 53.248-2.048 65.536-5.12 12.288-3.072 17.408-12.288 21.504-16.384 3.072-5.12 5.12-17.408 5.12-36.864 0-16.384 2.048-49.152 3.072-100.352 2.048-29.696 5.12-53.248 14.336-70.656 5.12-17.408 16.384-33.792 28.672-48.128s22.528-21.504 44.032-33.792c-21.504-16.384-38.912-28.672-49.152-38.912-14.336-17.408-22.528-46.08-29.696-70.656-3.072-19.456-5.12-65.536-5.12-132.096 0-19.456-2.048-34.816-5.12-46.08-3.072-5.12-12.288-14.336-19.456-16.384-10.24-3.072-31.744-5.12-67.584-5.12v-99.328h22.528c38.912 0 72.704 2.048 95.232 10.24 21.504 5.12 38.912 16.384 54.272 31.744s22.528 31.744 31.744 51.2c3.072 19.456 10.24 53.248 10.24 100.352 0 51.2 2.048 84.992 5.12 102.4 5.12 21.504 17.408 38.912 31.744 48.128 14.336 12.288 34.816 16.384 63.488 16.384-5.12-6.144-7.168 98.304-7.168 98.304z" fill="#1296db" p-id="10314"></path></svg>