<?xml version="1.0" standalone="no"?><!DOCTYPE svg PUBLIC "-//W3C//DTD SVG 1.1//EN" "http://www.w3.org/Graphics/SVG/1.1/DTD/svg11.dtd"><svg t="1651664223552" class="icon" viewBox="0 0 1176 1024" version="1.1" xmlns="http://www.w3.org/2000/svg" p-id="53637" xmlns:xlink="http://www.w3.org/1999/xlink" width="229.6875" height="200"><defs><style type="text/css"></style></defs><path d="M543.050492 241.95712c2.60331-6.421498 6.508275-12.4525 11.714896-17.702509l156.849435-156.806046c20.826481-20.826481 54.495959-20.826481 75.322439 0l40.741804 40.741803c20.826481 20.826481 20.826481 54.539347 0 75.32244l-156.806047 156.849435a53.194304 53.194304 0 0 1-13.797543 9.979355c0.520662 2.169425 0.780993 4.208685 0.780993 6.074391 0 63.347213 24.991777 87.77494 37.314111 121.05392 3.340915 9.111585 6.811995 17.96284 0 24.818224l-70.159208 70.115819a17.528955 17.528955 0 0 1-24.818223 0L315.868295 288.079098a17.528955 17.528955 0 0 1 0-24.774835l12.582666-12.582665 23.603345-23.603346 33.929809-33.973197c6.855383-6.855383 17.702509-3.991742 24.818223 0 40.26453 22.692187 66.774905 48.768676 130.078729 48.768677 0.737605 0 1.431821 0 2.169425 0.086777z m-429.893279 257.727702L293.306274 319.57915l274.822772 274.822773-180.192449 180.14906a38.919486 38.919486 0 0 1-55.016621 0l-33.062038-33.062038-37.574443-37.574443-99.706778-123.570454" p-id="53638" fill="#1296db"></path></svg>