<?xml version="1.0" standalone="no"?><!DOCTYPE svg PUBLIC "-//W3C//DTD SVG 1.1//EN" "http://www.w3.org/Graphics/SVG/1.1/DTD/svg11.dtd"><svg t="1651663473551" class="icon" viewBox="0 0 1024 1024" version="1.1" xmlns="http://www.w3.org/2000/svg" p-id="24459" xmlns:xlink="http://www.w3.org/1999/xlink" width="200" height="200"><defs><style type="text/css"></style></defs><path d="M966.892308 151.630769c-5.907692-5.907692-11.815385-7.876923-19.692308-7.876923-74.830769-3.938462-151.630769 1.969231-226.461538 3.938462H454.892308c-80.738462 0-145.723077 17.723077-206.769231 72.861538-39.384615 35.446154-76.8 86.646154-106.338462 131.938462-1.969231 5.907692-3.938462 9.846154-3.938461 17.723077 0 15.753846 13.784615 29.538462 29.538461 29.538461 17.723077 0 21.661538-11.815385 29.538462-23.630769 7.876923-13.784615 17.723077-25.6 29.538461-35.446154 41.353846-37.415385 96.492308-59.076923 151.63077-53.169231-47.261538 129.969231-112.246154 279.630769-206.769231 382.03077-39.384615 43.323077-106.338462 86.646154-120.123077 145.723076-15.753846 61.046154 47.261538 76.8 92.553846 59.076924 59.076923-23.630769 96.492308-84.676923 126.030769-137.846154 37.415385-64.984615 70.892308-133.907692 98.461539-202.83077 29.538462-68.923077 57.107692-135.876923 86.646154-204.8 17.723077-41.353846 21.661538-41.353846 64.984615-41.353846h116.184615c-43.323077 94.523077-84.676923 191.015385-122.092307 287.507693-29.538462 72.861538-82.707692 181.169231-45.292308 259.938461 37.415385 78.769231 141.784615 49.230769 198.892308 9.846154 57.107692-41.353846 96.492308-106.338462 128-169.353846 5.907692-11.815385 11.815385-23.630769 7.876923-37.415385-3.938462-11.815385-15.753846-17.723077-27.569231-17.723077-27.569231 0-31.507692 31.507692-41.353846 51.2-15.753846 33.476923-51.2 63.015385-88.615385 57.107693-86.646154-11.815385-9.846154-169.353846 5.907693-210.707693 15.753846-43.323077 33.476923-86.646154 53.16923-128 9.846154-23.630769 19.692308-49.230769 33.476923-72.861538 15.753846-29.538462 15.753846-29.538462 51.2-31.507692 29.538462-1.969231 116.184615 13.784615 141.784616-1.969231 21.661538-13.784615 33.476923-64.984615 43.323077-102.4 1.969231-11.815385-1.969231-21.661538-7.876923-29.538462z" p-id="24460" fill="#1296db"></path></svg>