<?xml version="1.0" standalone="no"?><!DOCTYPE svg PUBLIC "-//W3C//DTD SVG 1.1//EN" "http://www.w3.org/Graphics/SVG/1.1/DTD/svg11.dtd"><svg t="1651663399965" class="icon" viewBox="0 0 1024 1024" version="1.1" xmlns="http://www.w3.org/2000/svg" p-id="19925" xmlns:xlink="http://www.w3.org/1999/xlink" width="200" height="200"><defs><style type="text/css"></style></defs><path d="M85.333333 405.333333V170.666667a42.666667 42.666667 0 0 1 42.666667-42.666667h768a42.666667 42.666667 0 0 1 42.666667 42.666667v234.666666a106.666667 106.666667 0 1 0 0 213.333334V853.333333a42.666667 42.666667 0 0 1-42.666667 42.666667H128a42.666667 42.666667 0 0 1-42.666667-42.666667v-234.666666a106.666667 106.666667 0 1 0 0-213.333334z m85.333334-65.365333a192 192 0 0 1 0 344.064V810.666667h682.666666v-126.634667a192 192 0 0 1 0-344.064V213.333333H170.666667v126.634667zM384 384h256v85.333333H384V384z m0 170.666667h256v85.333333H384v-85.333333z" p-id="19926" fill="#1296db"></path></svg>