<?xml version="1.0" standalone="no"?><!DOCTYPE svg PUBLIC "-//W3C//DTD SVG 1.1//EN" "http://www.w3.org/Graphics/SVG/1.1/DTD/svg11.dtd"><svg t="1651665135264" class="icon" viewBox="0 0 1024 1024" version="1.1" xmlns="http://www.w3.org/2000/svg" p-id="5466" xmlns:xlink="http://www.w3.org/1999/xlink" width="200" height="200"><defs><style type="text/css"></style></defs><path d="M267.815385 297.353846c-66.953846 147.692308-66.953846 206.769231 0 356.430769h49.230769c-59.076923-129.969231-59.076923-226.461538-1.969231-356.430769h-47.261538z m458.830769 281.6c9.846154-1.969231 19.692308-3.938462 29.538461-3.938461 7.876923 0 13.784615 0 21.661539 1.96923 33.476923-100.430769 25.6-159.507692-29.538462-281.6h-49.230769c47.261538 106.338462 57.107692 189.046154 27.569231 283.569231z m-287.507692 177.230769H159.507692c-21.661538 0-39.384615-17.723077-39.384615-39.384615V200.861538h775.876923v411.569231c29.538462 3.938462 55.138462 13.784615 78.769231 27.569231V120.123077c0-43.323077-35.446154-78.769231-78.769231-78.769231H122.092308c-43.323077 0-78.769231 35.446154-78.769231 78.769231v636.061538c0 43.323077 35.446154 78.769231 78.769231 78.769231H413.538462c1.969231-27.569231 9.846154-55.138462 25.6-78.769231z m256-74.830769c15.753846-15.753846 37.415385-25.6 63.015384-25.6 33.476923 0 61.046154 17.723077 76.8 43.323077 11.815385-3.938462 27.569231-9.846154 43.323077-9.846154 57.107692 0 106.338462 47.261538 106.338462 104.369231s-47.261538 104.369231-106.338462 104.369231c-5.907692 0-13.784615 0-19.692308-1.969231-11.815385 23.630769-39.384615 39.384615-66.953846 39.384615-11.815385 0-23.630769-3.938462-33.476923-7.876923-13.784615 31.507692-45.292308 53.169231-80.738461 53.169231-39.384615 0-70.892308-23.630769-82.707693-55.138461-3.938462 0-11.815385 1.969231-17.723077 1.96923-45.292308 0-82.707692-35.446154-82.707692-80.738461 0-29.538462 15.753846-55.138462 41.353846-70.892308-3.938462-11.815385-7.876923-23.630769-7.876923-37.415385 0-51.2 43.323077-92.553846 94.523077-92.553846 29.538462-1.969231 55.138462 13.784615 72.861539 35.446154zM452.923077 569.107692c13.784615-23.630769 29.538462-49.230769 29.538461-49.230769 3.938462 21.661538 7.876923 39.384615 11.815385 47.261539 3.938462 13.784615 13.784615 25.6 25.6 33.476923 27.569231-19.692308 63.015385-31.507692 100.430769-31.507693h3.938462c0-11.815385-9.846154-21.661538-21.661539-21.661538-3.938462 0-5.907692 1.969231-9.846153 1.969231 0 0-23.630769 11.815385-31.507693 3.938461-5.907692-11.815385-11.815385-25.6-13.784615-43.323077-3.938462-15.753846-7.876923-33.476923-11.815385-53.169231l23.630769-33.476923s25.6 9.846154 39.384616 9.846154 41.353846-11.815385 41.353846-47.261538-25.6-37.415385-33.476923-37.415385c-15.753846 0-31.507692 11.815385-45.292308 33.476923-13.784615 23.630769-29.538462 49.230769-29.538461 49.230769-3.938462-17.723077-5.907692-31.507692-7.876923-37.415384-3.938462-13.784615-19.692308-47.261538-55.138462-47.261539-35.446154 0-66.953846 19.692308-66.953846 19.692308-5.907692 3.938462-9.846154 11.815385-9.846154 17.723077 0 11.815385 9.846154 21.661538 21.661539 21.661538 3.938462 0 5.907692-1.969231 9.846153-1.96923 0 0 25.6-15.753846 33.476923 0 1.969231 3.938462 3.938462 9.846154 3.938462 15.753846 5.907692 23.630769 11.815385 49.230769 17.723077 74.830769l-23.630769 33.476923s-25.6-9.846154-39.384616-9.846154-41.353846 11.815385-41.353846 47.261539 25.6 37.415385 33.476923 37.415384c17.723077 1.969231 33.476923-9.846154 45.292308-33.476923z" p-id="5467" fill="#1296db"></path></svg>