<?xml version="1.0" standalone="no"?><!DOCTYPE svg PUBLIC "-//W3C//DTD SVG 1.1//EN" "http://www.w3.org/Graphics/SVG/1.1/DTD/svg11.dtd"><svg t="1651665129976" class="icon" viewBox="0 0 1024 1024" version="1.1" xmlns="http://www.w3.org/2000/svg" p-id="5264" xmlns:xlink="http://www.w3.org/1999/xlink" width="200" height="200"><defs><style type="text/css"></style></defs><path d="M124.061538 84.676923h78.769231c-94.523077 208.738462-94.523077 366.276923 0 575.015385h-78.769231C13.784615 419.446154 15.753846 324.923077 124.061538 84.676923z m342.646154 356.430769c7.876923 35.446154 13.784615 64.984615 17.723077 76.8 5.907692 17.723077 15.753846 31.507692 27.569231 41.353846 29.538462-23.630769 66.953846-37.415385 106.338462-37.415384 25.6 0 49.230769 5.907692 70.892307 15.753846 3.938462-5.907692 5.907692-11.815385 5.907693-17.723077 0-19.692308-15.753846-35.446154-35.446154-35.446154-5.907692 0-9.846154 1.969231-15.753846 3.938462 0 0-37.415385 21.661538-51.2 3.938461-9.846154-17.723077-17.723077-41.353846-23.63077-68.923077-5.907692-25.6-11.815385-55.138462-17.723077-84.676923l37.415385-55.138461s43.323077 15.753846 64.984615 15.753846 64.984615-17.723077 64.984616-74.830769-41.353846-61.046154-55.138462-61.046154c-25.6 0-51.2 17.723077-72.861538 57.107692s-47.261538 82.707692-47.261539 82.707692c-5.907692-27.569231-9.846154-49.230769-11.815384-59.076923-3.938462-23.630769-31.507692-76.8-88.615385-76.8s-110.276923 33.476923-110.276923 33.476923c-9.846154 5.907692-15.753846 17.723077-15.753846 29.538462 0 19.692308 15.753846 35.446154 35.446154 35.446154 5.907692 0 9.846154-1.969231 15.753846-3.938462 0 0 43.323077-23.630769 53.169231 0 1.969231 7.876923 5.907692 15.753846 7.876923 23.63077 11.815385 37.415385 21.661538 80.738462 29.538461 122.092307l-37.415384 53.169231s-43.323077-15.753846-64.984616-15.753846c-21.661538 0-64.984615 17.723077-64.984615 74.830769s41.353846 61.046154 55.138461 61.046154c25.6 0 51.2-17.723077 72.861539-57.107692s47.261538-82.707692 47.261538-82.707693z m389.907693 126.03077c1.969231 0 1.969231 1.969231 3.938461 1.96923h17.723077c19.692308 0 39.384615 3.938462 57.107692 9.846154 70.892308-185.107692 59.076923-283.569231-37.415384-494.276923h-78.769231c80.738462 177.230769 92.553846 317.046154 37.415385 482.461539z m-161.476923 70.892307c15.753846-15.753846 37.415385-25.6 63.015384-25.6 31.507692 0 61.046154 17.723077 76.8 43.323077 13.784615-5.907692 27.569231-9.846154 43.323077-9.846154 59.076923 0 106.338462 47.261538 106.338462 106.338462 0 59.076923-47.261538 106.338462-106.338462 106.338461-7.876923 0-13.784615 0-21.661538-1.96923-13.784615 23.630769-39.384615 39.384615-66.953847 39.384615-11.815385 0-23.630769-3.938462-33.476923-7.876923-13.784615 31.507692-45.292308 53.169231-80.738461 53.169231-39.384615 0-70.892308-23.630769-82.707692-57.107693-5.907692 0-9.846154 1.969231-17.723077 1.969231-45.292308 0-82.707692-35.446154-82.707693-80.738461 0-29.538462 15.753846-57.107692 41.353846-70.892308-5.907692-11.815385-7.876923-23.630769-7.876923-37.415385 0-51.2 43.323077-94.523077 94.523077-94.523077 29.538462-1.969231 57.107692 13.784615 74.83077 35.446154z" p-id="5265" fill="#1296db"></path></svg>