<?xml version="1.0" standalone="no"?><!DOCTYPE svg PUBLIC "-//W3C//DTD SVG 1.1//EN" "http://www.w3.org/Graphics/SVG/1.1/DTD/svg11.dtd"><svg t="1651662194178" class="icon" viewBox="0 0 1024 1024" version="1.1" xmlns="http://www.w3.org/2000/svg" p-id="3639" xmlns:xlink="http://www.w3.org/1999/xlink" width="200" height="200"><defs><style type="text/css"></style></defs><path d="M810.666667 85.333333a85.333333 85.333333 0 0 1 85.333333 85.333334v152.021333c36.821333 9.493333 64 42.88 64 82.645333v405.333334a128 128 0 0 1-128 128H192a128 128 0 0 1-128-128V298.666667a85.376 85.376 0 0 1 64-82.645334V170.666667a85.333333 85.333333 0 0 1 85.333333-85.333334h597.333334zM128.149333 296.170667L128 298.666667v512a64 64 0 0 0 60.245333 63.893333L192 874.666667h640a64 64 0 0 0 63.893333-60.245334L896 810.666667V405.333333a21.333333 21.333333 0 0 0-18.837333-21.184L874.666667 384H638.165333l-122.069333-101.717333a21.333333 21.333333 0 0 0-10.688-4.736l-2.986667-0.213334H149.333333a21.333333 21.333333 0 0 0-21.184 18.837334zM535.189333 213.333333l127.978667 106.666667H832V170.666667a21.333333 21.333333 0 0 0-18.837333-21.184L810.666667 149.333333H213.333333a21.333333 21.333333 0 0 0-21.184 18.837334L192 170.666667v42.666666h343.168z" fill="#1296db" p-id="3640"></path></svg>