<?xml version="1.0" standalone="no"?><!DOCTYPE svg PUBLIC "-//W3C//DTD SVG 1.1//EN" "http://www.w3.org/Graphics/SVG/1.1/DTD/svg11.dtd"><svg t="1651662331784" class="icon" viewBox="0 0 1024 1024" version="1.1" xmlns="http://www.w3.org/2000/svg" p-id="6429" xmlns:xlink="http://www.w3.org/1999/xlink" width="200" height="200"><defs><style type="text/css"></style></defs><path d="M351.59960937 876.65820313c-49.04296875 0-90.79101563-31.90429688-105.55664062-76.02539063h-62.13867188c-19.42382813 0-35.15625-15.73242188-35.15625-35.15625s15.73242188-35.15625 35.15625-35.15625h62.13867188c14.765625-44.12109375 56.51367188-76.02539063 105.55664063-76.02539063s90.79101563 31.90429688 105.55664062 76.02539063h384.34570313c19.42382813 0 35.15625 15.73242188 35.15624999 35.15625s-15.73242188 35.15625-35.15625 35.15625H457.15625c-14.765625 44.03320313-56.51367188 76.02539063-105.55664063 76.02539063z m1e-8-152.13867188c-22.58789063 0-40.86914063 18.36914063-40.86914063 40.86914063 0 22.58789063 18.36914063 40.86914063 40.86914063 40.86914062 22.58789063 0 40.86914063-18.36914063 40.86914062-40.86914063 0.08789063-22.5-18.28125-40.86914063-40.86914063-40.86914062z m323.08593749-101.33789063c-49.04296875 0-90.79101563-31.90429688-105.55664062-76.02539062H183.9921875c-19.42382813 0-35.15625-15.73242188-35.15625-35.15625s15.73242188-35.15625 35.15625-35.15625H569.12890625c14.765625-44.12109375 56.51367188-76.02539063 105.55664063-76.02539063s90.79101563 31.90429688 105.55664062 76.02539063h61.25976563c19.42382813 0 35.15625 15.73242188 35.15625 35.15625s-15.73242188 35.15625-35.15625 35.15625h-61.25976563c-14.765625 44.12109375-56.51367188 76.02539063-105.55664063 76.02539063z m1e-8-152.13867187c-22.58789063 0-40.86914063 18.36914063-40.86914063 40.86914063 0 22.58789063 18.36914063 40.86914063 40.86914063 40.86914062 22.58789063 0 40.86914063-18.36914063 40.86914062-40.86914063s-18.36914063-40.86914063-40.86914063-40.86914062zM351.59960937 370.93554687c-49.04296875 0-90.79101563-31.90429688-105.55664062-76.02539062h-62.13867188c-19.42382813 0-35.15625-15.73242188-35.15625-35.15625s15.73242188-35.15625 35.15625-35.15625h62.13867188c14.765625-44.12109375 56.51367188-76.02539063 105.55664063-76.02539063s90.79101563 31.90429688 105.55664062 76.02539063h384.34570313c19.42382813 0 35.15625 15.73242188 35.15624999 35.15625s-15.73242188 35.15625-35.15625 35.15625H457.15625c-14.765625 44.12109375-56.51367188 76.02539063-105.55664063 76.02539063z m1e-8-152.13867187c-22.58789063 0-40.86914063 18.36914063-40.86914063 40.86914063 0 22.58789063 18.36914063 40.86914063 40.86914063 40.86914062 22.58789063 0 40.86914063-18.36914063 40.86914062-40.86914063 0.08789063-22.5-18.28125-40.86914063-40.86914063-40.86914062z" p-id="6430" fill="#1296db"></path></svg>