<?xml version="1.0" standalone="no"?><!DOCTYPE svg PUBLIC "-//W3C//DTD SVG 1.1//EN" "http://www.w3.org/Graphics/SVG/1.1/DTD/svg11.dtd"><svg t="1651665237589" class="icon" viewBox="0 0 1024 1024" version="1.1" xmlns="http://www.w3.org/2000/svg" p-id="5918" xmlns:xlink="http://www.w3.org/1999/xlink" width="200" height="200"><defs><style type="text/css"></style></defs><path d="M659.692308 551.384615l19.692307-78.76923h59.076923l-19.692307 78.76923h-59.076923z m-13.784616 59.076923h59.076923l-15.753846 59.076924h59.076923l15.753846-59.076924H827.076923v-59.076923h-49.230769l19.692308-78.76923h59.076923v-59.076923h-43.323077l13.784615-59.076924h-59.076923l-13.784615 59.076924h-59.076923l13.784615-59.076924h-59.076923l-13.784616 59.076924H571.076923v59.076923h49.230769l-19.692307 78.76923H531.692308v59.076923h55.138461l-15.753846 59.076924h59.076923l15.753846-59.076924zM78.769231 118.153846h866.461538c21.661538 0 39.384615 17.723077 39.384616 39.384616v708.923076c0 21.661538-17.723077 39.384615-39.384616 39.384616H78.769231c-21.661538 0-39.384615-17.723077-39.384616-39.384616V157.538462c0-21.661538 17.723077-39.384615 39.384616-39.384616z m389.907692 409.6c11.815385-7.876923 21.661538-15.753846 29.538462-23.630769 7.876923-5.907692 13.784615-15.753846 19.692307-25.6 5.907692-9.846154 7.876923-23.630769 7.876923-37.415385 0-15.753846-3.938462-33.476923-13.784615-47.261538-7.876923-13.784615-21.661538-23.630769-37.415385-31.507692-15.753846-7.876923-33.476923-11.815385-55.138461-11.815385-23.630769 0-45.292308 3.938462-63.015385 13.784615-17.723077 7.876923-33.476923 21.661538-47.261538 39.384616l-3.938462 3.938461 41.353846 35.446154 3.938462-3.938461c9.846154-11.815385 19.692308-19.692308 29.538461-25.6 9.846154-3.938462 21.661538-7.876923 35.446154-7.876924s23.630769 3.938462 31.507693 11.815385c7.876923 5.907692 11.815385 15.753846 11.815384 27.569231 0 7.876923-3.938462 15.753846-9.846154 23.630769-5.907692 5.907692-15.753846 13.784615-27.56923 23.630769-15.753846 9.846154-25.6 19.692308-33.476923 29.538462-7.876923 9.846154-13.784615 21.661538-13.784616 35.446154v13.784615h63.015385v-5.907692c0-5.907692 1.969231-11.815385 5.907692-15.753846 5.907692-5.907692 13.784615-13.784615 25.6-21.661539zM196.923077 354.461538v216.615385h59.076923V354.461538h-59.076923z m29.538461 324.923077c21.661538 0 39.384615-17.723077 39.384616-39.384615s-17.723077-39.384615-39.384616-39.384615-39.384615 17.723077-39.384615 39.384615 17.723077 39.384615 39.384615 39.384615z m177.23077 0c21.661538 0 39.384615-17.723077 39.384615-39.384615s-17.723077-39.384615-39.384615-39.384615-39.384615 17.723077-39.384616 39.384615 17.723077 39.384615 39.384616 39.384615z" p-id="5919" fill="#1296db"></path></svg>