<?xml version="1.0" standalone="no"?><!DOCTYPE svg PUBLIC "-//W3C//DTD SVG 1.1//EN" "http://www.w3.org/Graphics/SVG/1.1/DTD/svg11.dtd"><svg t="1651661862557" class="icon" viewBox="0 0 1024 1024" version="1.1" xmlns="http://www.w3.org/2000/svg" p-id="4860" xmlns:xlink="http://www.w3.org/1999/xlink" width="200" height="200"><defs><style type="text/css"></style></defs><path d="M846.769231 135.876923V78.769231c0-15.753846-13.784615-29.538462-29.538462-29.538462H232.369231c-15.753846 0-29.538462 13.784615-29.538462 29.538462v61.046154c0 5.907692 0 13.784615 5.907693 19.692307L496.246154 512 208.738462 864.492308c-3.938462 5.907692-5.907692 11.815385-5.907693 19.692307V945.230769c0 15.753846 13.784615 29.538462 29.538462 29.538462h584.861538c15.753846 0 29.538462-13.784615 29.538462-29.538462v-57.107692c0-15.753846-13.784615-29.538462-29.538462-29.538462H362.338462l261.907692-320.984615c5.907692-7.876923 7.876923-15.753846 7.876923-27.569231 0-9.846154-3.938462-19.692308-9.846154-27.569231L362.338462 165.415385h454.892307c15.753846 0 29.538462-13.784615 29.538462-29.538462z" p-id="4861" fill="#1296db"></path></svg>