<?xml version="1.0" standalone="no"?><!DOCTYPE svg PUBLIC "-//W3C//DTD SVG 1.1//EN" "http://www.w3.org/Graphics/SVG/1.1/DTD/svg11.dtd"><svg t="1651662252541" class="icon" viewBox="0 0 1024 1024" version="1.1" xmlns="http://www.w3.org/2000/svg" p-id="5479" xmlns:xlink="http://www.w3.org/1999/xlink" width="200" height="200"><defs><style type="text/css"></style></defs><path d="M307.3024 299.1104a25.6 25.6 0 0 0-25.6 25.6v95.2832a25.6 25.6 0 0 0 25.6 25.6512h95.232a25.6 25.6 0 0 0 25.6512-25.6V324.7104a25.6 25.6 0 0 0-25.6-25.6512H307.3024z m0-51.2512h95.232c42.496 0 76.9024 34.4064 76.9024 76.9024v95.232c0 42.496-34.4064 76.9024-76.8512 76.9024H307.3024c-42.496 0-76.9024-34.4064-76.9024-76.9024v-95.232c0-42.496 34.4064-76.9024 76.9024-76.9024z m339.712 37.2224a25.6 25.6 0 0 0-35.0208 9.4208l-47.616 82.4832a25.6 25.6 0 0 0 9.3696 35.0208l82.4832 47.616a25.6 25.6 0 0 0 35.0208-9.3696l47.616-82.4832a25.6 25.6 0 0 0-9.3696-35.0208l-82.4832-47.616z m108.1344 3.2768c36.7616 21.248 49.3568 68.2496 28.16 105.0112l-47.616 82.5344a76.9024 76.9024 0 0 1-105.0624 28.16l-82.5344-47.616a76.9024 76.9024 0 0 1-28.16-105.0624l47.616-82.5344a76.9024 76.9024 0 0 1 105.0624-28.16l82.5344 47.616z m-447.8464 307.456a25.6 25.6 0 0 0-25.6 25.6v95.2832a25.6 25.6 0 0 0 25.6 25.6h95.232a25.6 25.6 0 0 0 25.6512-25.6v-95.232a25.6 25.6 0 0 0-25.6-25.6512H307.3024z m0-51.2512h95.232c42.496 0 76.9024 34.4064 76.9024 76.8512v95.2832c0 42.496-34.4064 76.9024-76.8512 76.9024H307.3024c-42.496 0-76.9024-34.4064-76.9024-76.9024v-95.232c0-42.496 34.4064-76.9024 76.9024-76.9024z m296.704 51.2a25.6 25.6 0 0 0-25.6512 25.6512v95.2832a25.6 25.6 0 0 0 25.6 25.6h95.2832a25.6 25.6 0 0 0 25.6512-25.6v-95.232a25.6 25.6 0 0 0-25.6-25.6512h-95.2832z m0-51.2h95.232c42.496 0 76.9024 34.4064 76.9024 76.8512v95.2832c0 42.496-34.4064 76.9024-76.9024 76.9024h-95.232c-42.496 0-76.9024-34.4064-76.9024-76.9024v-95.232c0-42.496 34.4064-76.9024 76.9024-76.9024z" p-id="5480" fill="#1296db"></path></svg>