<?xml version="1.0" standalone="no"?><!DOCTYPE svg PUBLIC "-//W3C//DTD SVG 1.1//EN" "http://www.w3.org/Graphics/SVG/1.1/DTD/svg11.dtd"><svg t="1651665996881" class="icon" viewBox="0 0 1024 1024" version="1.1" xmlns="http://www.w3.org/2000/svg" p-id="85932" xmlns:xlink="http://www.w3.org/1999/xlink" width="200" height="200"><defs><style type="text/css"></style></defs><path d="M128 96h768a32 32 0 0 1 32 32v768a32 32 0 0 1-32 32H128a32 32 0 0 1-32-32V128a32 32 0 0 1 32-32z m0 32v768h768V128H128z m352 352V128h32v352h384v32H512v384h-32V512H128v-32h352zM288 288V192h32v96h96v32h-96v96H288v-96H192V288h96z m30.4 391.776l67.872-67.904 22.624 22.624-67.872 67.904 67.872 67.872-22.624 22.624-67.872-67.872-67.904 67.872-22.624-22.624 67.904-67.872-67.904-67.904 22.624-22.624 67.904 67.904zM608 288h224v32h-224V288z m31.808 522.048l-22.432-22.816 205.44-201.856 22.4 22.816-205.44 201.856z" p-id="85933" fill="#1296db"></path></svg>