<?xml version="1.0" standalone="no"?><!DOCTYPE svg PUBLIC "-//W3C//DTD SVG 1.1//EN" "http://www.w3.org/Graphics/SVG/1.1/DTD/svg11.dtd"><svg t="1651663982288" class="icon" viewBox="0 0 1024 1024" version="1.1" xmlns="http://www.w3.org/2000/svg" p-id="42905" xmlns:xlink="http://www.w3.org/1999/xlink" width="200" height="200"><defs><style type="text/css"></style></defs><path d="M928 896 416 896C380.656 896 352 867.344 352 832L352 448C352 412.656 380.656 384 416 384L512 384C529.68 384 544 398.336 544 416 544 433.68 529.68 448 512 448L416 448 416 832 928 832 928 448 768 448C750.32 448 736 433.68 736 416 736 398.336 750.32 384 768 384L928 384C963.344 384 992 412.656 992 448L992 832C992 867.344 963.344 896 928 896ZM608 640 512 640C494.336 640 480 625.68 480 608 480 590.32 494.336 576 512 576L608 576 608 192 96 192 96 576 256 576C273.68 576 288 590.32 288 608 288 625.68 273.68 640 256 640L96 640C60.656 640 32 611.344 32 576L32 192C32 156.656 60.656 128 96 128L608 128C643.344 128 672 156.656 672 192L672 576C672 611.344 643.344 640 608 640Z" p-id="42906" fill="#1296db"></path></svg>