<?xml version="1.0" standalone="no"?><!DOCTYPE svg PUBLIC "-//W3C//DTD SVG 1.1//EN" "http://www.w3.org/Graphics/SVG/1.1/DTD/svg11.dtd"><svg t="1651666453914" class="icon" viewBox="0 0 1024 1024" version="1.1" xmlns="http://www.w3.org/2000/svg" p-id="9110" xmlns:xlink="http://www.w3.org/1999/xlink" width="200" height="200"><defs><style type="text/css"></style></defs><path d="M483.2 790.3L861.4 412c1.7-1.7 2.5-4 2.3-6.3l-25.5-301.4c-0.7-7.8-6.8-13.9-14.6-14.6L522.2 64.3c-2.3-0.2-4.7 0.6-6.3 2.3L137.7 444.8c-3.1 3.1-3.1 8.2 0 11.3l334.2 334.2c3.1 3.2 8.2 3.2 11.3 0z m62.6-651.7l224.6 19 19 224.6L477.5 694 233.9 450.5l311.9-311.9z" p-id="9111" fill="#1296db"></path><path d="M605.958852 324.826232a48 48 0 1 0 67.881066-67.883435 48 48 0 1 0-67.881066 67.883435Z" p-id="9112" fill="#1296db"></path><path d="M889.7 539.8l-39.6-39.5c-3.1-3.1-8.2-3.1-11.3 0l-362 361.3-237.6-237c-3.1-3.1-8.2-3.1-11.3 0l-39.6 39.5c-3.1 3.1-3.1 8.2 0 11.3l243.2 242.8 39.6 39.5c3.1 3.1 8.2 3.1 11.3 0l407.3-406.6c3.1-3.1 3.1-8.2 0-11.3z" p-id="9113" fill="#1296db"></path></svg>