<?xml version="1.0" standalone="no"?><!DOCTYPE svg PUBLIC "-//W3C//DTD SVG 1.1//EN" "http://www.w3.org/Graphics/SVG/1.1/DTD/svg11.dtd"><svg t="1651665194812" class="icon" viewBox="0 0 1024 1024" version="1.1" xmlns="http://www.w3.org/2000/svg" p-id="5716" xmlns:xlink="http://www.w3.org/1999/xlink" width="200" height="200"><defs><style type="text/css"></style></defs><path d="M909.784615 766.030769L539.569231 976.738462c-19.692308 11.815385-45.292308 11.815385-64.984616 0L106.338462 766.030769c-15.753846-7.876923-15.753846-27.569231 0-35.446154l86.646153-49.230769c5.907692-3.938462 13.784615-3.938462 19.692308 0l224.492308 128c21.661538 11.815385 45.292308 17.723077 70.892307 17.723077s49.230769-5.907692 70.892308-17.723077l224.492308-128c5.907692-3.938462 13.784615-3.938462 19.692308 0l86.646153 49.230769c15.753846 7.876923 15.753846 27.569231 0 35.446154z m0-236.307692L539.569231 740.430769c-19.692308 11.815385-45.292308 11.815385-64.984616 0L106.338462 529.723077c-15.753846-7.876923-15.753846-27.569231 0-35.446154l86.646153-49.230769c5.907692-3.938462 13.784615-3.938462 19.692308 0l224.492308 128c21.661538 11.815385 45.292308 17.723077 70.892307 17.723077s49.230769-5.907692 70.892308-17.723077l224.492308-128c5.907692-3.938462 13.784615-3.938462 19.692308 0l86.646153 49.230769c15.753846 7.876923 15.753846 27.569231 0 35.446154z m-431.261538-25.6L108.307692 293.415385c-15.753846-7.876923-15.753846-27.569231 0-35.446154L478.523077 47.261538c19.692308-11.815385 45.292308-11.815385 64.984615 0l370.215385 210.707693c15.753846 7.876923 15.753846 27.569231 0 35.446154L543.507692 504.123077c-19.692308 9.846154-45.292308 9.846154-64.984615 0z" p-id="5717" fill="#1296db"></path></svg>