<?xml version="1.0" standalone="no"?><!DOCTYPE svg PUBLIC "-//W3C//DTD SVG 1.1//EN" "http://www.w3.org/Graphics/SVG/1.1/DTD/svg11.dtd"><svg t="1651665790629" class="icon" viewBox="0 0 1141 1024" version="1.1" xmlns="http://www.w3.org/2000/svg" p-id="79963" xmlns:xlink="http://www.w3.org/1999/xlink" width="222.8515625" height="200"><defs><style type="text/css"></style></defs><path d="M745.341952 1023.98859a107.254265 107.254265 0 0 1-74.867339-28.963918 98.360294 98.360294 0 0 1-30.338973-71.970947v-100.642299h83.293206v100.642299a19.777382 19.777382 0 0 0 21.913106 21.064668H1035.683284a24.078085 24.078085 0 0 0 21.942362-21.064668V100.946567a19.777382 19.777382 0 0 0-21.942362-21.064667h-290.429102a24.078085 24.078085 0 0 0-21.913105 21.064667V204.80708h-83.322462V100.946567A98.360294 98.360294 0 0 1 670.357587 28.97562 107.254265 107.254265 0 0 1 745.224926 0.011703H1035.683284a107.283521 107.283521 0 0 1 74.896595 28.963917 98.389551 98.389551 0 0 1 30.368229 71.970947v822.107158a98.389551 98.389551 0 0 1-30.368229 71.970947 107.254265 107.254265 0 0 1-74.867339 28.963918h-290.429101zM105.239371 1023.98859a107.254265 107.254265 0 0 1-74.867339-28.963918A98.389551 98.389551 0 0 1 0.003803 923.053725V100.946567A98.389551 98.389551 0 0 1 30.372032 28.97562 107.254265 107.254265 0 0 1 105.239371 0.011703h290.429102a107.254265 107.254265 0 0 1 74.867338 28.963917 98.360294 98.360294 0 0 1 30.338973 71.970947v100.6423h-83.293206V100.946567a21.445002 21.445002 0 0 0-21.913105-21.064667H105.32714a21.679054 21.679054 0 0 0-21.942361 21.064667v822.107158a19.777382 19.777382 0 0 0 21.942361 21.064668h290.429102a21.679054 21.679054 0 0 0 21.913106-21.064668v-100.642299h83.293205v100.642299a98.360294 98.360294 0 0 1-30.338972 71.970947 107.254265 107.254265 0 0 1-74.867339 28.963918H105.32714z m449.584366-365.413466a41.778257 41.778257 0 0 1-29.256482-11.995158 38.033427 38.033427 0 0 1 0-56.465011l55.850625-53.246799h-232.208701a112.578945 112.578945 0 0 1-98.184756 75.481725v0.292565h-9.654639a108.921884 108.921884 0 1 1 0-217.66823 113.807717 113.807717 0 0 1 102.397689 61.731178h237.972228l-55.909138-53.246798a38.033427 38.033427 0 0 1 0-56.465011 41.222384 41.222384 0 0 1 58.512965 0.292565l156.375899 149.500625-156.522181 149.793191a41.33941 41.33941 0 0 1-29.373509 11.995158zM241.340528 454.364876a49.531225 49.531225 0 1 0 0 98.886911 52.047282 52.047282 0 0 0 49.297173-33.059826v-33.059825a52.222821 52.222821 0 0 0-49.297173-32.76726z m661.196504 138.090597a88.881194 88.881194 0 1 1 92.65528-88.647142 90.695096 90.695096 0 0 1-92.626024 88.647142z" p-id="79964" fill="#1296db"></path></svg>